<?xml version="1.0" standalone="no"?>
<!DOCTYPE svg PUBLIC "-//W3C//DTD SVG 20010904//EN"
 "http://www.w3.org/TR/2001/REC-SVG-20010904/DTD/svg10.dtd">
<svg version="1.0" xmlns="http://www.w3.org/2000/svg"
 width="512.000000pt" height="512.000000pt" viewBox="0 0 512.000000 512.000000"
 preserveAspectRatio="xMidYMid meet">

<g transform="translate(0.000000,512.000000) scale(0.100000,-0.100000)"
fill="#000000" stroke="none">
<path d="M1744 4614 c-329 -190 -791 -457 -1026 -592 -293 -169 -430 -254
-437 -270 -15 -32 -15 -2352 -1 -2384 8 -16 318 -200 1030 -611 561 -324 1028
-591 1039 -594 24 -6 19 -9 441 235 195 113 393 227 439 254 l84 48 47 -44
c26 -24 60 -47 77 -50 39 -9 89 12 126 52 26 27 31 29 58 19 27 -10 29 -15 29
-60 0 -26 7 -61 15 -77 30 -57 41 -60 256 -60 197 0 197 0 228 26 31 26 51 76
51 130 0 23 6 34 24 42 21 9 28 6 57 -24 42 -44 88 -59 132 -45 20 7 83 61
167 146 l135 135 0 50 c0 44 -4 53 -39 89 -36 36 -39 44 -30 68 9 26 15 28 71
33 71 6 107 31 124 90 16 53 8 369 -10 396 -23 34 -53 48 -115 54 -54 5 -60 7
-69 33 -8 26 -5 33 27 66 45 46 55 93 32 143 -9 19 -71 88 -136 153 l-120 118
0 773 c0 436 -4 783 -9 796 -6 16 -79 63 -238 155 -125 72 -574 331 -998 576
-824 475 -827 477 -848 477 -7 0 -283 -156 -613 -346z m938 23 c164 -95 298
-174 298 -177 0 -7 -1874 -1090 -1886 -1090 -18 0 -622 356 -616 362 5 5 428
251 942 548 547 316 941 537 950 534 8 -3 149 -83 312 -177z m635 -367 c152
-88 179 -106 165 -116 -35 -23 -1858 -1073 -1869 -1076 -13 -3 -382 202 -383
213 0 11 1875 1089 1891 1086 9 -1 97 -49 196 -107z m611 -351 c163 -95 303
-177 309 -183 10 -9 -209 -139 -926 -554 -517 -298 -944 -542 -950 -542 -21 0
-622 353 -614 361 4 4 341 200 748 435 407 235 828 478 935 540 107 63 196
114 198 114 1 0 136 -77 300 -171z m-3206 -486 l288 -167 0 -461 c0 -401 2
-463 16 -483 21 -30 60 -28 172 9 l93 31 87 -94 c48 -51 108 -115 133 -142 50
-53 84 -62 119 -31 19 17 20 33 20 407 0 213 3 388 8 388 4 -1 149 -83 322
-183 l315 -183 3 -1092 c1 -601 -1 -1092 -5 -1092 -5 1 -431 245 -948 543
l-940 543 -3 1093 c-2 1025 -1 1093 15 1087 9 -4 146 -82 305 -173z m3598
-536 l0 -713 -34 -33 c-27 -26 -40 -32 -59 -27 -21 5 -25 13 -30 58 -13 126
-38 141 -241 146 -184 5 -228 -1 -268 -37 -26 -23 -32 -36 -37 -91 -5 -59 -8
-65 -34 -74 -24 -9 -31 -6 -65 26 -41 41 -78 54 -119 43 -41 -10 -291 -260
-302 -302 -13 -46 2 -93 43 -132 34 -33 34 -35 20 -62 -13 -27 -19 -29 -70
-29 -50 0 -59 -3 -90 -34 l-34 -34 0 -202 0 -202 34 -34 c31 -31 39 -34 94
-34 57 0 61 -1 70 -29 9 -26 7 -32 -24 -62 -66 -64 -64 -133 6 -204 l40 -41
-393 -227 c-216 -125 -396 -227 -400 -227 -4 0 -6 491 -5 1092 l3 1091 940
543 c517 299 943 544 948 544 4 0 7 -321 7 -713z m-2965 171 l160 -93 2 -335
3 -335 -93 98 c-50 53 -99 97 -108 97 -8 0 -49 -11 -89 -25 -40 -14 -77 -25
-82 -25 -4 0 -8 167 -8 370 l0 371 28 -15 c15 -9 99 -57 187 -108z m2715 -935
c0 -64 16 -103 42 -103 5 0 40 -14 78 -30 40 -18 76 -27 87 -24 10 4 37 25 61
48 l42 41 102 -103 103 -102 -41 -42 c-23 -24 -44 -51 -48 -61 -3 -11 6 -47
24 -87 16 -38 30 -72 30 -76 0 -4 7 -16 17 -26 13 -14 31 -18 85 -18 l69 0 -3
-147 -3 -148 -65 -3 c-63 -3 -100 -20 -100 -46 0 -6 -14 -40 -29 -75 -34 -75
-31 -95 27 -154 l36 -37 -101 -102 -102 -102 -51 48 c-58 54 -57 54 -160 11
-93 -39 -99 -46 -102 -124 l-3 -66 -142 -3 -143 -3 0 58 c0 84 -12 99 -110
139 -46 19 -90 34 -97 34 -8 0 -36 -21 -64 -47 l-50 -47 -101 102 -102 101 47
50 c26 28 47 56 47 63 0 17 -60 170 -72 183 -5 6 -41 12 -81 15 l-72 5 0 145
0 145 72 5 c39 3 74 7 77 10 10 10 76 172 76 186 0 8 -21 37 -47 65 l-47 50
102 101 101 102 44 -41 c55 -51 78 -58 116 -39 16 9 54 25 84 36 63 24 77 46
77 125 l0 55 145 0 145 0 0 -67z"/>
<path d="M575 1985 c-28 -27 -32 -53 -12 -77 20 -26 534 -318 560 -318 36 0
60 23 60 59 0 17 -4 36 -9 41 -18 18 -548 320 -561 320 -8 0 -25 -11 -38 -25z"/>
<path d="M567 1672 c-18 -19 -22 -59 -9 -79 9 -14 542 -323 558 -323 6 0 23 9
38 21 30 24 34 61 8 87 -32 32 -530 312 -555 312 -13 0 -31 -8 -40 -18z"/>
<path d="M3869 1799 c-128 -14 -251 -104 -312 -228 -30 -61 -32 -73 -32 -171
0 -93 3 -111 27 -163 38 -80 117 -160 197 -200 61 -30 72 -32 171 -32 97 0
110 2 170 31 126 61 198 152 226 284 28 135 -12 267 -110 366 -89 88 -206 128
-337 113z m177 -154 c98 -48 148 -131 148 -245 0 -64 -4 -83 -29 -128 -72
-131 -232 -184 -361 -119 -105 53 -159 147 -152 264 5 79 25 127 76 178 87 87
204 106 318 50z"/>
</g>
</svg>
